<svg width="26" height="24" viewBox="0 0 26 24" fill="none" xmlns="http://www.w3.org/2000/svg">
<path d="M13.1878 8.20001C14.3623 8.20001 15.3232 7.34501 15.3232 6.30001C15.3232 5.25501 14.3623 4.40001 13.1878 4.40001C12.0134 4.40001 11.0525 5.25501 11.0525 6.30001C11.0525 7.34501 12.0134 8.20001 13.1878 8.20001ZM13.1878 10.1C12.0134 10.1 11.0525 10.955 11.0525 12C11.0525 13.045 12.0134 13.9 13.1878 13.9C14.3623 13.9 15.3232 13.045 15.3232 12C15.3232 10.955 14.3623 10.1 13.1878 10.1ZM13.1878 15.8C12.0134 15.8 11.0525 16.655 11.0525 17.7C11.0525 18.745 12.0134 19.6 13.1878 19.6C14.3623 19.6 15.3232 18.745 15.3232 17.7C15.3232 16.655 14.3623 15.8 13.1878 15.8Z" fill="#C5C7CD"/>
</svg>
