<svg width="22" height="24" viewBox="0 0 22 24" fill="none" xmlns="http://www.w3.org/2000/svg">
<path d="M14.2796 11.5051L13.8442 10.8944C13.617 11.0564 13.4985 11.3312 13.5366 11.6076C13.5748 11.8841 13.7633 12.1165 14.0259 12.2109L14.2796 11.5051ZM7.56682 11.505L7.82045 12.2108C8.08309 12.1164 8.27161 11.884 8.30977 11.6076C8.34794 11.3311 8.22944 11.0563 8.00219 10.8943L7.56682 11.505ZM15.9617 6.78846C15.9617 8.48146 15.1274 9.97963 13.8442 10.8944L14.7149 12.1158C16.3761 10.9317 17.4617 8.98685 17.4617 6.78846H15.9617ZM10.9233 1.75C13.7059 1.75 15.9617 4.0058 15.9617 6.78846H17.4617C17.4617 3.17737 14.5344 0.25 10.9233 0.25V1.75ZM5.88481 6.78846C5.88481 4.0058 8.1406 1.75 10.9233 1.75V0.25C7.31218 0.25 4.38481 3.17737 4.38481 6.78846H5.88481ZM8.00219 10.8943C6.71904 9.97954 5.88481 8.48141 5.88481 6.78846H4.38481C4.38481 8.98679 5.47042 10.9315 7.13144 12.1157L8.00219 10.8943ZM1.75 20.8461C1.75 16.8701 4.28006 13.4831 7.82045 12.2108L7.31318 10.7992C3.19616 12.2786 0.25 16.2174 0.25 20.8461H1.75ZM1.75 21.4475V20.8461H0.25V21.4475H1.75ZM2.05245 21.75C1.88541 21.75 1.75 21.6146 1.75 21.4475H0.25C0.25 22.443 1.05699 23.25 2.05245 23.25V21.75ZM19.7937 21.75H2.05245V23.25H19.7937V21.75ZM20.0962 21.4475C20.0962 21.6146 19.9607 21.75 19.7937 21.75V23.25C20.7892 23.25 21.5962 22.443 21.5962 21.4475H20.0962ZM20.0962 20.8461V21.4475H21.5962V20.8461H20.0962ZM14.0259 12.2109C17.5662 13.4832 20.0962 16.8702 20.0962 20.8461H21.5962C21.5962 16.2175 18.6501 12.2788 14.5332 10.7993L14.0259 12.2109Z" fill="currentColor"/>
</svg>
