<svg width="36" height="45" viewBox="0 0 36 45" fill="none" xmlns="http://www.w3.org/2000/svg">
<path opacity="0.6" d="M23.8374 11.3334C23.2468 11.4153 22.6801 11.6407 22.1407 12.0128C21.5979 12.3883 20.8571 12.2517 20.4816 11.7089C20.106 11.1627 20.2426 10.4185 20.7854 10.0464C21.5877 9.49334 22.4479 9.1383 23.3424 8.9915C23.1853 8.43845 22.9942 7.89564 22.7689 7.36991C22.4002 6.5062 21.9359 5.70394 21.3896 4.96995C19.6964 2.67924 17.2145 1.05082 14.3912 0.347566C8.18478 -1.20233 1.89642 2.57683 0.346521 8.78667C-0.995132 14.1703 1.66769 19.6155 6.45736 21.9745C6.46419 21.9779 6.50515 21.9984 6.5666 22.0291C7.0343 22.2578 8.83 23.1454 9.51278 23.6814C9.5674 23.7258 9.61519 23.7668 9.65616 23.8043C11.3836 25.3132 13.1349 28.1126 10.4584 32.4482C9.46498 33.964 8.19843 35.5139 6.90799 36.8726C6.90799 36.8726 6.03062 38.0845 6.90799 38.9653C7.66928 39.7266 8.72758 39.1702 9.00411 39.0029C9.02118 38.9926 9.03825 38.979 9.05532 38.9687C13.7392 35.5549 17.2077 31.151 19.5598 27.2899C20.9629 24.9855 21.9666 22.8757 22.5913 21.2814C23.7657 18.2943 24.2914 14.7063 23.8374 11.3334ZM7.52931 22.4422L7.53273 22.4388L7.54638 22.4456C7.5498 22.449 7.55663 22.449 7.56004 22.4524C7.53956 22.4456 7.52931 22.4422 7.52931 22.4422Z" fill="#0A84FF"/>
<path d="M34.7689 12.1289C33.2497 8.57844 30.1226 6.0351 26.3912 5.10653C24.6979 4.6832 22.9978 4.65589 21.3899 4.96997C17.1055 5.79954 13.4731 9.02907 12.3465 13.5456C11.0049 18.9293 13.6677 24.3744 18.4574 26.7334C18.4642 26.7368 18.5052 26.7573 18.5666 26.788C18.7441 26.8734 19.1231 27.0612 19.56 27.2899C20.2531 27.6483 21.0929 28.1126 21.5128 28.4404C21.5674 28.4847 21.6152 28.5257 21.6562 28.5633C23.3836 30.0722 25.1349 32.8716 22.4584 37.2072C21.465 38.723 20.1984 40.2729 18.908 41.6316C18.908 41.6316 18.0306 42.8435 18.908 43.7243C19.6693 44.4856 20.7276 43.9291 21.0041 43.7618C21.0212 43.7516 21.0382 43.7379 21.0553 43.7277C28.5317 38.2792 32.9151 30.3078 34.5913 26.0404C36.2471 21.8345 36.6123 16.4372 34.7689 12.1289ZM19.5293 27.2011L19.5327 27.1977L19.5464 27.2045C19.5498 27.208 19.5566 27.208 19.56 27.2114C19.5396 27.2045 19.5293 27.2011 19.5293 27.2011ZM31.0546 24.7192C30.8736 25.1972 30.4162 25.4908 29.9348 25.4908C29.7948 25.4908 29.6515 25.4669 29.5149 25.4157C28.897 25.1835 28.5829 24.4939 28.8151 23.876C29.7505 21.3975 30.58 17.8096 29.2179 14.7985C28.4976 13.2008 27.0194 11.8899 25.4592 11.4529C24.9028 11.2993 24.36 11.2583 23.8376 11.3334C23.247 11.4154 22.6803 11.6407 22.1409 12.0128C21.5981 12.3883 20.8573 12.2518 20.4818 11.709C20.1063 11.1627 20.2428 10.4185 20.7856 10.0464C21.5879 9.49336 22.4482 9.13831 23.3426 8.99152C24.2336 8.83789 25.1622 8.8891 26.0976 9.15197C28.3508 9.77671 30.3786 11.5622 31.3959 13.8119C33.0961 17.5672 32.147 21.8174 31.0546 24.7192Z" fill="#0A84FF"/>
</svg>
