<svg width="25" height="26" viewBox="0 0 25 26" fill="none" xmlns="http://www.w3.org/2000/svg">
<path d="M3.36047 4.78978L3.35905 4.78927C3.35468 4.78771 3.34983 4.78746 3.34525 4.78859C3.34068 4.78973 3.33688 4.7921 3.33419 4.79505L2.78082 4.2888L3.33489 4.79429C2.21565 6.02108 1.35918 7.46138 0.816703 9.02705L0.750528 9.23006C0.749863 9.2321 0.749829 9.23422 0.750412 9.23625C0.751001 9.23831 0.752293 9.24051 0.754508 9.24237L0.75535 9.24307L3.15062 11.2603C3.15072 11.2604 3.15081 11.2604 3.15091 11.2605C3.40447 11.4739 3.60845 11.7401 3.74845 12.0405L3.06865 12.3573L3.74845 12.0405C3.8885 12.341 3.96111 12.6685 3.96111 13C3.96111 13.3316 3.8885 13.6591 3.74845 13.9596C3.60845 14.26 3.40447 14.5261 3.15091 14.7395C3.15081 14.7396 3.15072 14.7397 3.15062 14.7398L0.75535 16.757L0.754512 16.7577C0.752293 16.7595 0.751001 16.7617 0.750412 16.7638L3.36047 4.78978ZM3.36047 4.78978L6.31687 5.83859L6.31774 5.8389C6.62956 5.94909 6.96154 5.99065 7.2909 5.96078C7.62027 5.93091 7.93935 5.8303 8.22623 5.66575C8.51312 5.50119 8.76105 5.27656 8.95288 5.00715C9.14472 4.73772 9.27586 4.42994 9.33717 4.10494L9.33775 4.10178L9.90286 1.03382M3.36047 4.78978L0.750528 16.77C1.28744 18.4141 2.16832 19.9261 3.33508 21.206L2.78082 21.7112L3.33419 21.205C3.33688 21.2079 3.34067 21.2103 3.34524 21.2114C3.34984 21.2126 3.35468 21.2123 3.35905 21.2108L3.36047 21.2103L6.31541 20.162C6.31587 20.1618 6.31634 20.1616 6.3168 20.1615C6.31682 20.1615 6.31685 20.1615 6.31687 20.1614C6.62851 20.0504 6.96055 20.0081 7.29009 20.0374C7.62014 20.0668 7.93996 20.1674 8.2274 20.3323C8.51485 20.4971 8.76311 20.7224 8.95487 20.9927L8.34319 21.4267L8.95487 20.9927C9.14663 21.263 9.27728 21.5717 9.33762 21.8975L9.33784 21.8988L9.9006 24.9657C9.90061 24.9658 9.90062 24.9659 9.90063 24.9659C9.90118 24.9687 9.9026 24.9716 9.90507 24.9741C9.90761 24.9767 9.91115 24.9788 9.91539 24.9797L9.91618 24.9799C11.619 25.34 13.3788 25.34 15.0816 24.9799L15.0838 24.9794C15.0877 24.9786 15.0908 24.9767 15.0931 24.9745C15.0943 24.9732 15.0952 24.9718 15.0959 24.9705C15.0964 24.9694 15.0968 24.9682 15.097 24.9671L15.0971 24.9667L15.6623 21.8983L15.6628 21.8951C15.7241 21.5701 15.8553 21.2623 16.0471 20.9929L16.6581 21.4279L16.0471 20.9929C16.239 20.7235 16.4869 20.4988 16.7738 20.3343C17.0606 20.1697 17.3797 20.0691 17.7091 20.0393C18.0385 20.0094 18.3704 20.0509 18.6823 20.1611L18.6831 20.1614L21.6395 21.2103L21.641 21.2108C21.6453 21.2123 21.6502 21.2126 21.6548 21.2114C21.6593 21.2103 21.6631 21.2079 21.6658 21.205L22.2192 21.7112M22.2192 21.7112L21.6649 21.2059C22.8318 19.926 23.7127 18.4139 24.2496 16.7696L24.9625 17.0024M22.2192 21.7112C23.4576 20.3528 24.3927 18.7479 24.9625 17.0024M22.2192 21.7112C22.1166 21.8234 21.983 21.9028 21.8352 21.9394C21.6875 21.976 21.5321 21.9683 21.3888 21.9171L18.4324 20.8683L22.3322 14.1658L24.7278 16.1833C24.9669 16.3848 25.0582 16.7077 24.9625 17.0024M24.9625 17.0024L24.2492 16.7709C24.2502 16.7677 24.25 16.7657 24.2495 16.7638C24.2492 16.7628 24.2488 16.7618 24.2481 16.7608C24.2476 16.76 24.2466 16.7586 24.2446 16.7569C24.2445 16.7569 24.2445 16.7568 24.2444 16.7568L21.8504 14.7406C21.85 14.7403 21.8497 14.74 21.8494 14.7398C21.5955 14.5267 21.3912 14.2607 21.251 13.9604C21.1105 13.6597 21.0377 13.3319 21.0377 13C21.0377 12.6681 21.1105 12.3403 21.251 12.0396C21.3912 11.7394 21.5955 11.4734 21.8493 11.2604C21.8496 11.2601 21.85 11.2598 21.8503 11.2595L24.2447 9.24307L24.2455 9.24237C24.2477 9.24051 24.249 9.23832 24.2496 9.23625C24.2502 9.23424 24.2501 9.23215 24.2495 9.23014C23.7132 7.5855 22.8307 6.07458 21.6646 4.79369L22.2192 4.28883L21.6658 4.79505C21.6631 4.7921 21.6593 4.78973 21.6548 4.78859C21.6502 4.78746 21.6453 4.78771 21.641 4.78927L21.6395 4.78978L18.6846 5.83807C18.6844 5.83815 18.6841 5.83823 18.6839 5.83831C18.3721 5.94956 18.0397 5.99195 17.7099 5.96259C17.3799 5.9332 17.06 5.83265 16.7726 5.66778C16.4852 5.5029 16.2369 5.27761 16.0451 5.00735L16.6568 4.57335L16.0451 5.00734C15.8534 4.73708 15.7227 4.42834 15.6624 4.10249L15.6623 4.10178L15.0972 1.03391C15.0961 1.0279 15.0916 1.02194 15.0826 1.01991C13.3794 0.659939 11.6193 0.660028 9.91614 1.02018L9.76098 0.286408M9.76098 0.286408L9.91758 1.01988C9.91336 1.02078 9.90983 1.02284 9.90731 1.02543L9.37023 0.501936L9.90731 1.02543C9.90481 1.028 9.90339 1.03095 9.90286 1.03382M9.76098 0.286408C11.5669 -0.0954692 13.4331 -0.0954692 15.239 0.286408M9.76098 0.286408H15.239M9.90286 1.03382L9.90294 1.03336L9.16535 0.897493M9.90286 1.03382L9.16535 0.897493M9.16535 0.897493L8.60016 3.96592C8.55898 4.18421 8.47089 4.39101 8.34193 4.57214C8.21297 4.75326 8.04619 4.9044 7.85307 5.01517C7.65995 5.12594 7.44506 5.19372 7.22316 5.21384C7.00127 5.23397 6.77763 5.20596 6.56763 5.13175L9.16535 0.897493ZM15.239 0.286408C15.5434 0.351417 15.7781 0.591951 15.8347 0.897493L15.239 0.286408ZM7.94363 13C7.94363 14.2055 8.42403 15.361 9.27836 16.2127C10.1326 17.0642 11.2907 17.5422 12.4978 17.5422C13.7049 17.5422 14.863 17.0642 15.7173 16.2127C16.5716 15.361 17.052 14.2054 17.052 13C17.052 11.7946 16.5716 10.639 15.7173 9.78736C14.863 8.9358 13.7049 8.45782 12.4978 8.45782C11.2907 8.45782 10.1326 8.9358 9.27836 9.78736C8.42403 10.639 7.94363 11.7946 7.94363 13Z" stroke="currentColor" stroke-width="1.5"/>
</svg>
